<?xml version="1.0" encoding="UTF-8"?>
<svg width="188px" height="54px" viewBox="0 0 188 54" version="1.1" xmlns="http://www.w3.org/2000/svg" xmlns:xlink="http://www.w3.org/1999/xlink">
    <!-- Generator: Sketch 48.1 (47250) - http://www.bohemiancoding.com/sketch -->
    <title>mm black</title>
    <desc>Created with Sketch.</desc>
    <defs></defs>
    <g id="brand" stroke="none" stroke-width="1" fill="none" fill-rule="evenodd">
        <g id="mm-black" fill="#262626">
            <path d="M23.898,29.862 C23.898,28.8059947 23.7623347,28.0580022 23.491,27.618 C23.2196653,27.1779978 22.7540033,26.958 22.094,26.958 C21.8886656,26.958 21.6760011,26.9689999 21.456,26.991 C21.2359989,27.0130001 21.0233344,27.0386665 20.818,27.068 L20.818,36 L17.54,36 L17.54,24.824 C17.8186681,24.7506663 18.1449981,24.6736671 18.519,24.593 C18.8930019,24.5123329 19.2889979,24.4390003 19.707,24.373 C20.1250021,24.3069997 20.5539978,24.2556669 20.994,24.219 C21.4340022,24.1823332 21.8666645,24.164 22.292,24.164 C23.1280042,24.164 23.8063307,24.2703323 24.327,24.483 C24.8476693,24.6956677 25.276665,24.9486652 25.614,25.242 C26.0833357,24.904665 26.6223303,24.6406676 27.231,24.45 C27.8396697,24.2593324 28.4006641,24.164 28.914,24.164 C29.8380046,24.164 30.596997,24.2923321 31.191,24.549 C31.785003,24.805668 32.2579982,25.1686643 32.61,25.638 C32.9620018,26.1073357 33.2039993,26.6646634 33.336,27.31 C33.4680007,27.9553366 33.534,28.673996 33.534,29.466 L33.534,36 L30.256,36 L30.256,29.862 C30.256,28.8059947 30.1203347,28.0580022 29.849,27.618 C29.5776653,27.1779978 29.1120033,26.958 28.452,26.958 C28.2759991,26.958 28.0303349,27.0019996 27.715,27.09 C27.3996651,27.1780004 27.1393344,27.2879993 26.934,27.42 C27.0366672,27.757335 27.1026665,28.1129981 27.132,28.487 C27.1613335,28.8610019 27.176,29.2606645 27.176,29.686 L27.176,36 L23.898,36 L23.898,29.862 Z M46.778,24.428 C46.1179967,26.6573445 45.4286703,28.7473236 44.71,30.698 C43.9913297,32.6486764 43.2066709,34.5406575 42.356,36.374 C42.0479985,37.0340033 41.7400015,37.5949977 41.432,38.057 C41.1239985,38.5190023 40.7866685,38.9003318 40.42,39.201 C40.0533315,39.5016682 39.6390023,39.721666 39.177,39.861 C38.7149977,40.000334 38.1760031,40.07 37.56,40.07 C37.0466641,40.07 36.5736688,40.0223338 36.141,39.927 C35.7083312,39.8316662 35.3526681,39.7253339 35.074,39.608 L35.646,36.99 C35.983335,37.1073339 36.2839987,37.1879998 36.548,37.232 C36.8120013,37.2760002 37.0906652,37.298 37.384,37.298 C37.9706696,37.298 38.4216651,37.1403349 38.737,36.825 C39.0523349,36.5096651 39.3199989,36.0733361 39.54,35.516 C38.7919963,34.049326 38.0440037,32.4030091 37.296,30.577 C36.5479963,28.7509909 35.8440033,26.7013447 35.184,24.428 L38.66,24.428 C38.8066674,25.0000029 38.978999,25.6196633 39.177,26.287 C39.375001,26.9543367 39.5839989,27.6289966 39.804,28.311 C40.0240011,28.9930034 40.2476655,29.6566634 40.475,30.302 C40.7023345,30.9473366 40.9186656,31.5339974 41.124,32.062 C41.3146676,31.5339974 41.5126656,30.9473366 41.718,30.302 C41.9233344,29.6566634 42.124999,28.9930034 42.323,28.311 C42.521001,27.6289966 42.7116657,26.9543367 42.895,26.287 C43.0783342,25.6196633 43.2433326,25.0000029 43.39,24.428 L46.778,24.428 Z M51.86,33.646 C52.4613363,33.646 52.8866654,33.5873339 53.136,33.47 C53.3853346,33.3526661 53.51,33.125335 53.51,32.788 C53.51,32.5239987 53.3486683,32.293001 53.026,32.095 C52.7033317,31.896999 52.2120033,31.6733346 51.552,31.424 C51.0386641,31.2333324 50.5730021,31.0353344 50.155,30.83 C49.7369979,30.6246656 49.3813348,30.3790014 49.088,30.093 C48.7946652,29.8069986 48.5673341,29.466002 48.406,29.07 C48.2446659,28.673998 48.164,28.1973361 48.164,27.64 C48.164,26.5546612 48.5673293,25.6966698 49.374,25.066 C50.1806707,24.4353302 51.287993,24.12 52.696,24.12 C53.4000035,24.12 54.0746634,24.1823327 54.72,24.307 C55.3653366,24.4316673 55.8786648,24.5673326 56.26,24.714 L55.688,27.266 C55.3066648,27.1339993 54.8923356,27.0166672 54.445,26.914 C53.9976644,26.8113328 53.4953361,26.76 52.938,26.76 C51.9113282,26.76 51.398,27.0459971 51.398,27.618 C51.398,27.7500007 51.4199998,27.8673328 51.464,27.97 C51.5080002,28.0726672 51.5959993,28.1716662 51.728,28.267 C51.8600007,28.3623338 52.0396655,28.4649995 52.267,28.575 C52.4943345,28.6850005 52.7839982,28.8059993 53.136,28.938 C53.8546703,29.2020013 54.4486643,29.4623321 54.918,29.719 C55.3873357,29.975668 55.7576653,30.2543318 56.029,30.555 C56.3003347,30.8556682 56.4909995,31.1893315 56.601,31.556 C56.7110006,31.9226685 56.766,32.3479976 56.766,32.832 C56.766,33.9760057 56.3370043,34.8413304 55.479,35.428 C54.6209957,36.0146696 53.4073412,36.308 51.838,36.308 C50.8113282,36.308 49.9570034,36.2200009 49.275,36.044 C48.5929966,35.8679991 48.1200013,35.7213339 47.856,35.604 L48.406,32.942 C48.9633361,33.1620011 49.5353304,33.3343327 50.122,33.459 C50.7086696,33.5836673 51.2879971,33.646 51.86,33.646 Z M59.098,21.546 L62.376,21.018 L62.376,24.428 L66.314,24.428 L66.314,27.156 L62.376,27.156 L62.376,31.226 C62.376,31.9153368 62.4969988,32.4653313 62.739,32.876 C62.9810012,33.2866687 63.468663,33.492 64.202,33.492 C64.5540018,33.492 64.9169981,33.4590003 65.291,33.393 C65.6650019,33.3269997 66.0059985,33.2353339 66.314,33.118 L66.776,35.67 C66.379998,35.8313341 65.9400024,35.9706661 65.456,36.088 C64.9719976,36.2053339 64.3780035,36.264 63.674,36.264 C62.7793289,36.264 62.0386696,36.1430012 61.452,35.901 C60.8653304,35.6589988 60.3960018,35.3216688 60.044,34.889 C59.6919982,34.4563312 59.446334,33.9320031 59.307,33.316 C59.167666,32.6999969 59.098,32.0180037 59.098,31.27 L59.098,21.546 Z M68.426,30.302 C68.426,29.2753282 68.5836651,28.3770039 68.899,27.607 C69.2143349,26.8369962 69.6286641,26.1953359 70.142,25.682 C70.6553359,25.1686641 71.2456633,24.7800013 71.913,24.516 C72.5803367,24.2519987 73.2659965,24.12 73.97,24.12 C75.6126749,24.12 76.9106619,24.6223283 77.864,25.627 C78.8173381,26.6316717 79.294,28.1093236 79.294,30.06 C79.294,30.2506676 79.2866667,30.4596655 79.272,30.687 C79.2573333,30.9143345 79.2426667,31.1159991 79.228,31.292 L71.792,31.292 C71.8653337,31.96667 72.1806639,32.501998 72.738,32.898 C73.2953361,33.294002 74.0433286,33.492 74.982,33.492 C75.5833363,33.492 76.1736638,33.4370006 76.753,33.327 C77.3323362,33.2169995 77.8053315,33.0813341 78.172,32.92 L78.612,35.582 C78.4359991,35.6700004 78.2013348,35.7579996 77.908,35.846 C77.6146652,35.9340004 77.2883351,36.0109997 76.929,36.077 C76.5696649,36.1430003 76.1846687,36.1979998 75.774,36.242 C75.3633313,36.2860002 74.9526687,36.308 74.542,36.308 C73.5006615,36.308 72.5950038,36.1540015 71.825,35.846 C71.0549961,35.5379985 70.4170025,35.116336 69.911,34.581 C69.4049975,34.045664 69.0310012,33.411337 68.789,32.678 C68.5469988,31.944663 68.426,31.1526709 68.426,30.302 Z M76.126,29.048 C76.1113333,28.7693319 76.0636671,28.4980013 75.983,28.234 C75.9023329,27.9699987 75.7776675,27.7353344 75.609,27.53 C75.4403325,27.3246656 75.2276679,27.1560007 74.971,27.024 C74.714332,26.8919993 74.3953352,26.826 74.014,26.826 C73.6473315,26.826 73.3320013,26.8883327 73.068,27.013 C72.8039987,27.1376673 72.5840009,27.3026656 72.408,27.508 C72.2319991,27.7133344 72.0963338,27.9516653 72.001,28.223 C71.9056662,28.4943347 71.8360002,28.7693319 71.792,29.048 L76.126,29.048 Z M88.798,27.332 C88.5046652,27.2586663 88.160002,27.1816671 87.764,27.101 C87.367998,27.0203329 86.9426689,26.98 86.488,26.98 C86.2826656,26.98 86.0370014,26.9983332 85.751,27.035 C85.4649986,27.0716668 85.2486674,27.1119998 85.102,27.156 L85.102,36 L81.824,36 L81.824,25.044 C82.4106696,24.8386656 83.1036627,24.6443342 83.903,24.461 C84.7023373,24.2776658 85.5933284,24.186 86.576,24.186 C86.7520009,24.186 86.9646654,24.1969999 87.214,24.219 C87.4633346,24.2410001 87.7126654,24.2703331 87.962,24.307 C88.2113346,24.3436668 88.4606654,24.3876664 88.71,24.439 C88.9593346,24.4903336 89.1719991,24.5526663 89.348,24.626 L88.798,27.332 Z M101.382,24.428 C100.721997,26.6573445 100.03267,28.7473236 99.314,30.698 C98.5953297,32.6486764 97.8106709,34.5406575 96.96,36.374 C96.6519985,37.0340033 96.3440015,37.5949977 96.036,38.057 C95.7279985,38.5190023 95.3906685,38.9003318 95.024,39.201 C94.6573315,39.5016682 94.2430023,39.721666 93.781,39.861 C93.3189977,40.000334 92.7800031,40.07 92.164,40.07 C91.6506641,40.07 91.1776688,40.0223338 90.745,39.927 C90.3123312,39.8316662 89.9566681,39.7253339 89.678,39.608 L90.25,36.99 C90.587335,37.1073339 90.8879987,37.1879998 91.152,37.232 C91.4160013,37.2760002 91.6946652,37.298 91.988,37.298 C92.5746696,37.298 93.0256651,37.1403349 93.341,36.825 C93.6563349,36.5096651 93.9239989,36.0733361 94.144,35.516 C93.3959963,34.049326 92.6480037,32.4030091 91.9,30.577 C91.1519963,28.7509909 90.4480033,26.7013447 89.788,24.428 L93.264,24.428 C93.4106674,25.0000029 93.582999,25.6196633 93.781,26.287 C93.979001,26.9543367 94.1879989,27.6289966 94.408,28.311 C94.6280011,28.9930034 94.8516655,29.6566634 95.079,30.302 C95.3063345,30.9473366 95.5226656,31.5339974 95.728,32.062 C95.9186676,31.5339974 96.1166656,30.9473366 96.322,30.302 C96.5273344,29.6566634 96.728999,28.9930034 96.927,28.311 C97.125001,27.6289966 97.3156657,26.9543367 97.499,26.287 C97.6823342,25.6196633 97.8473326,25.0000029 97.994,24.428 L101.382,24.428 Z M103.494,25.022 C103.919335,24.9046661 104.472997,24.7726674 105.155,24.626 C105.837003,24.4793326 106.720661,24.406 107.806,24.406 C109.243341,24.406 110.284663,24.8239958 110.93,25.66 C111.003334,25.601333 111.146332,25.502334 111.359,25.363 C111.571668,25.223666 111.839332,25.0806674 112.162,24.934 C112.484668,24.7873326 112.862331,24.6626672 113.295,24.56 C113.727669,24.4573328 114.207997,24.406 114.736,24.406 C115.601338,24.406 116.301664,24.534332 116.837,24.791 C117.372336,25.047668 117.786665,25.4069977 118.08,25.869 C118.373335,26.3310023 118.571333,26.8846634 118.674,27.53 C118.776667,28.1753366 118.828,28.8793295 118.828,29.642 L118.828,36 L117.398,36 L117.398,30.104 C117.398,29.3559963 117.365,28.7070028 117.299,28.157 C117.233,27.6069972 117.101001,27.1523351 116.903,26.793 C116.704999,26.4336649 116.422668,26.1623343 116.056,25.979 C115.689331,25.7956658 115.21267,25.704 114.626,25.704 C114.185998,25.704 113.786335,25.7443329 113.427,25.825 C113.067665,25.9056671 112.756001,26.0046661 112.492,26.122 C112.227999,26.2393339 112.011668,26.3566661 111.843,26.474 C111.674332,26.5913339 111.553334,26.679333 111.48,26.738 C111.612001,27.1193352 111.711,27.548331 111.777,28.025 C111.843,28.5016691 111.876,29.0039974 111.876,29.532 L111.876,36 L110.446,36 L110.446,30.104 C110.446,29.3559963 110.413,28.7070028 110.347,28.157 C110.281,27.6069972 110.145334,27.1523351 109.94,26.793 C109.734666,26.4336649 109.445002,26.1623343 109.071,25.979 C108.696998,25.7956658 108.202003,25.704 107.586,25.704 C106.896663,25.704 106.313669,25.7406663 105.837,25.814 C105.360331,25.8873337 105.056001,25.953333 104.924,26.012 L104.924,36 L103.494,36 L103.494,25.022 Z M126.066,34.966 C126.623336,34.966 127.110998,34.9476669 127.529,34.911 C127.947002,34.8743331 128.302665,34.826667 128.596,34.768 L128.596,30.764 C128.434666,30.6906663 128.178002,30.6136671 127.826,30.533 C127.473998,30.4523329 126.990003,30.412 126.374,30.412 C126.021998,30.412 125.655335,30.4376664 125.274,30.489 C124.892665,30.5403336 124.540668,30.6503325 124.218,30.819 C123.895332,30.9876675 123.631334,31.2186652 123.426,31.512 C123.220666,31.8053348 123.118,32.1939976 123.118,32.678 C123.118,33.1033355 123.187666,33.4626652 123.327,33.756 C123.466334,34.0493348 123.664332,34.2839991 123.921,34.46 C124.177668,34.6360009 124.485665,34.7643329 124.845,34.845 C125.204335,34.9256671 125.611331,34.966 126.066,34.966 Z M125.934,24.362 C126.682004,24.362 127.316331,24.4683323 127.837,24.681 C128.357669,24.8936677 128.779332,25.1869981 129.102,25.561 C129.424668,25.9350019 129.659333,26.3786641 129.806,26.892 C129.952667,27.4053359 130.026,27.9626637 130.026,28.564 L130.026,35.736 C129.879333,35.7800002 129.666668,35.8276664 129.388,35.879 C129.109332,35.9303336 128.786669,35.985333 128.42,36.044 C128.053332,36.102667 127.646336,36.1503332 127.199,36.187 C126.751664,36.2236669 126.293336,36.242 125.824,36.242 C125.222664,36.242 124.669003,36.1760007 124.163,36.044 C123.656997,35.9119993 123.217002,35.7030014 122.843,35.417 C122.468998,35.1309986 122.175668,34.7643356 121.963,34.317 C121.750332,33.8696644 121.644,33.3233366 121.644,32.678 C121.644,32.0619969 121.761332,31.5340022 121.996,31.094 C122.230668,30.6539978 122.560665,30.2910014 122.986,30.005 C123.411335,29.7189986 123.91733,29.5100007 124.504,29.378 C125.09067,29.2459993 125.728663,29.18 126.418,29.18 C126.623334,29.18 126.839666,29.1909999 127.067,29.213 C127.294334,29.2350001 127.514332,29.2643331 127.727,29.301 C127.939668,29.3376669 128.122999,29.3743332 128.277,29.411 C128.431001,29.4476669 128.537333,29.4806665 128.596,29.51 L128.596,28.806 C128.596,28.409998 128.566667,28.0250019 128.508,27.651 C128.449333,27.2769981 128.321001,26.9396682 128.123,26.639 C127.924999,26.3383318 127.646335,26.0963342 127.287,25.913 C126.927665,25.7296657 126.45467,25.638 125.868,25.638 C125.031996,25.638 124.408669,25.6966661 123.998,25.814 C123.587331,25.9313339 123.286668,26.0266663 123.096,26.1 L122.898,24.846 C123.147335,24.7286661 123.532331,24.6186672 124.053,24.516 C124.573669,24.4133328 125.200663,24.362 125.934,24.362 Z M137.55,24.406 C138.019336,24.406 138.462998,24.4426663 138.881,24.516 C139.299002,24.5893337 139.588666,24.6626663 139.75,24.736 L139.464,25.968 C139.346666,25.909333 139.108335,25.8470003 138.749,25.781 C138.389665,25.7149997 137.91667,25.682 137.33,25.682 C136.713997,25.682 136.219002,25.7259996 135.845,25.814 C135.470998,25.9020004 135.225334,25.975333 135.108,26.034 L135.108,36 L133.678,36 L133.678,25.154 C134.044668,24.9926659 134.550663,24.8276675 135.196,24.659 C135.841337,24.4903325 136.625995,24.406 137.55,24.406 Z M144.942,29.818 C145.396669,30.1260015 145.884331,30.5219976 146.405,31.006 C146.925669,31.4900024 147.438997,32.0143305 147.945,32.579 C148.451003,33.1436695 148.927664,33.722997 149.375,34.317 C149.822336,34.911003 150.199998,35.4719974 150.508,36 L148.814,36 C148.461998,35.4133304 148.062336,34.8376695 147.615,34.273 C147.167664,33.7083305 146.698336,33.1766692 146.207,32.678 C145.715664,32.1793308 145.224336,31.7246687 144.733,31.314 C144.241664,30.9033313 143.776002,30.5586681 143.336,30.28 L143.336,36 L141.906,36 L141.906,19.192 L143.336,18.928 L143.336,29.752 C143.702668,29.3999982 144.113331,28.9966689 144.568,28.542 C145.022669,28.0873311 145.480998,27.6253357 145.943,27.156 C146.405002,26.6866643 146.841331,26.2320022 147.252,25.792 C147.662669,25.3519978 148.014665,24.963335 148.308,24.626 L150.024,24.626 C149.686665,24.9780018 149.305335,25.3739978 148.88,25.814 C148.454665,26.2540022 148.011002,26.712331 147.549,27.189 C147.086998,27.665669 146.628669,28.1313311 146.174,28.586 L144.942,29.818 Z M152.114,30.302 C152.114,29.3046617 152.256999,28.4356704 152.543,27.695 C152.829001,26.9543296 153.202998,26.3346692 153.665,25.836 C154.127002,25.3373308 154.654997,24.9670012 155.249,24.725 C155.843003,24.4829988 156.45533,24.362 157.086,24.362 C158.47934,24.362 159.590329,24.8166621 160.419,25.726 C161.247671,26.6353379 161.662,28.0359905 161.662,29.928 C161.662,30.0453339 161.658333,30.1626661 161.651,30.28 C161.643667,30.3973339 161.632667,30.5073328 161.618,30.61 L153.632,30.61 C153.676,32.0033403 154.020663,33.0739963 154.666,33.822 C155.311337,34.5700037 156.337993,34.944 157.746,34.944 C158.523337,34.944 159.139331,34.8706674 159.594,34.724 C160.048669,34.5773326 160.378666,34.4526672 160.584,34.35 L160.848,35.582 C160.642666,35.6993339 160.257669,35.8386659 159.693,36 C159.128331,36.1613341 158.46467,36.242 157.702,36.242 C156.704662,36.242 155.854004,36.0953348 155.15,35.802 C154.445996,35.5086652 153.866669,35.0980026 153.412,34.57 C152.957331,34.0419974 152.627334,33.4150036 152.422,32.689 C152.216666,31.9629964 152.114,31.1673377 152.114,30.302 Z M160.188,29.4 C160.158667,28.2119941 159.880003,27.2880033 159.352,26.628 C158.823997,25.9679967 158.076005,25.638 157.108,25.638 C156.594664,25.638 156.136335,25.7406656 155.733,25.946 C155.329665,26.1513344 154.977668,26.4263316 154.677,26.771 C154.376332,27.1156684 154.141668,27.5153311 153.973,27.97 C153.804332,28.4246689 153.705333,28.9013308 153.676,29.4 L160.188,29.4 Z M166.194,24.626 L170.726,24.626 L170.726,25.836 L166.194,25.836 L166.194,31.886 C166.194,32.5313366 166.248999,33.0556646 166.359,33.459 C166.469001,33.8623354 166.626666,34.1739989 166.832,34.394 C167.037334,34.6140011 167.286665,34.7606663 167.58,34.834 C167.873335,34.9073337 168.195998,34.944 168.548,34.944 C169.149336,34.944 169.633331,34.874334 170,34.735 C170.366668,34.595666 170.652666,34.4673339 170.858,34.35 L171.21,35.538 C171.004666,35.6700007 170.645336,35.8203325 170.132,35.989 C169.618664,36.1576675 169.061336,36.242 168.46,36.242 C167.755996,36.242 167.165669,36.1503343 166.689,35.967 C166.212331,35.7836657 165.831001,35.5050019 165.545,35.131 C165.258999,34.7569981 165.057334,34.2913361 164.94,33.734 C164.822666,33.1766639 164.764,32.5166705 164.764,31.754 L164.764,21.282 L166.194,21.018 L166.194,24.626 Z" id="mysterymarket"></path>
        </g>
    </g>
</svg>